<svg width="20" height="20" viewBox="0 0 20 20" fill="none" xmlns="http://www.w3.org/2000/svg">
<g id="bag">
<path id="Vector (Stroke)" fill-rule="evenodd" clip-rule="evenodd" d="M4.99935 2.70768C4.07888 2.70768 3.33268 3.45387 3.33268 4.37435L3.33268 15.6243C3.33268 16.5448 4.07888 17.291 4.99935 17.291H14.9993C15.9198 17.291 16.666 16.5448 16.666 15.6243V4.37436C16.666 3.45389 15.9198 2.7077 14.9993 2.70769L4.99935 2.70768ZM1.66602 4.37435C1.66602 2.5334 3.1584 1.04101 4.99935 1.04102L14.9994 1.04103C16.8403 1.04103 18.3327 2.53341 18.3327 4.37436V15.6243C18.3327 17.4653 16.8403 18.9577 14.9993 18.9577H4.99935C3.1584 18.9577 1.66602 17.4653 1.66602 15.6243L1.66602 4.37435ZM13.7493 4.166C14.2096 4.166 14.5827 4.53909 14.5827 4.99933L14.5827 6.24933C14.5827 8.78063 12.5307 10.8327 9.99935 10.8327C7.46804 10.8327 5.41601 8.78063 5.41601 6.24933V4.99933C5.41601 4.53909 5.78911 4.166 6.24935 4.166C6.70958 4.166 7.08268 4.53909 7.08268 4.99933V6.24933C7.08268 7.86016 8.38852 9.166 9.99935 9.166C11.6102 9.166 12.916 7.86016 12.916 6.24933L12.916 4.99933C12.916 4.53909 13.2891 4.166 13.7493 4.166Z" fill="#424551"/>
</g>
</svg>
