<svg width="20" height="20" viewBox="0 0 20 20" fill="none" xmlns="http://www.w3.org/2000/svg">
<g id="Logout">
<g id="Union">
<path d="M13.7507 17.291C14.2109 17.291 14.584 17.6641 14.584 18.1243C14.584 18.5846 14.2109 18.9577 13.7507 18.9577H5.20898C2.9078 18.9577 1.04232 17.0922 1.04232 14.791V5.20768C1.04232 2.90649 2.9078 1.04102 5.20898 1.04102H13.7507C14.2109 1.04102 14.584 1.41411 14.584 1.87435C14.584 2.33459 14.2109 2.70768 13.7507 2.70768L5.20898 2.70768C3.82827 2.70768 2.70898 3.82697 2.70898 5.20768V14.791C2.70898 16.1717 3.82827 17.291 5.20898 17.291H13.7507Z" fill="#424551"/>
<path d="M4.79232 9.99935C4.79232 10.2204 4.88011 10.4323 5.0364 10.5886L8.7864 14.3386C9.11183 14.664 9.63947 14.664 9.96491 14.3386C10.2903 14.0132 10.2903 13.4855 9.96491 13.1601L7.6375 10.8327L18.1257 10.8327C18.5859 10.8327 18.959 10.4596 18.959 9.99935C18.959 9.53911 18.5859 9.16602 18.1257 9.16602L7.6375 9.16602L9.96491 6.83861C10.2903 6.51317 10.2903 5.98553 9.96491 5.66009C9.63947 5.33466 9.11183 5.33466 8.7864 5.66009L5.0364 9.41009C4.88011 9.56637 4.79232 9.77834 4.79232 9.99935Z" fill="#424551"/>
</g>
</g>
</svg>
