<svg width="18" height="18" viewBox="0 0 18 18" fill="none" xmlns="http://www.w3.org/2000/svg">
<g id="Person">
<g id="Vector">
<path fill-rule="evenodd" clip-rule="evenodd" d="M8.99922 1.70768C7.38839 1.70768 6.08255 3.01352 6.08255 4.62435C6.08255 6.23518 7.38839 7.54102 8.99922 7.54102C10.61 7.54102 11.9159 6.23518 11.9159 4.62435C11.9159 3.01352 10.61 1.70768 8.99922 1.70768ZM4.41588 4.62435C4.41588 2.09304 6.46791 0.0410156 8.99922 0.0410156C11.5305 0.0410156 13.5826 2.09304 13.5826 4.62435C13.5826 7.15565 11.5305 9.20768 8.99922 9.20768C6.46791 9.20768 4.41588 7.15565 4.41588 4.62435Z" fill="black"/>
<path fill-rule="evenodd" clip-rule="evenodd" d="M4.08594 11.7077C3.50817 11.7077 3.05658 11.989 2.87327 12.3932C2.61955 12.9526 2.3898 13.6187 2.33559 14.2503C2.31135 14.5327 2.42909 14.7408 2.59132 14.8416C3.44895 15.3743 5.43621 16.291 8.99922 16.291C12.5622 16.291 14.5495 15.3743 15.4071 14.8416C15.5693 14.7408 15.6871 14.5327 15.6628 14.2503C15.6086 13.6187 15.3789 12.9526 15.1252 12.3932C14.9419 11.989 14.4903 11.7077 13.9125 11.7077H4.08594ZM1.35541 11.7048C1.86203 10.5877 2.99331 10.041 4.08594 10.041H13.9125C15.0051 10.041 16.1364 10.5877 16.643 11.7048C16.934 12.3464 17.2463 13.2089 17.3234 14.1078C17.3937 14.9263 17.0535 15.7809 16.2866 16.2573C15.1586 16.958 12.8655 17.9577 8.99922 17.9577C5.13289 17.9577 2.8398 16.958 1.71185 16.2573C0.944971 15.7809 0.60477 14.9263 0.675024 14.1078C0.752172 13.2089 1.06442 12.3464 1.35541 11.7048Z" fill="black"/>
</g>
</g>
</svg>
