<svg width="20" height="20" viewBox="0 0 20 20" fill="none" xmlns="http://www.w3.org/2000/svg">
<g id="Plus" clip-path="url(#clip0_2837_12131)">
<path id="plus" fill-rule="evenodd" clip-rule="evenodd" d="M10.0007 0.833984C10.4609 0.833984 10.834 1.20708 10.834 1.66732V9.16732H18.334C18.7942 9.16732 19.1673 9.54041 19.1673 10.0007C19.1673 10.4609 18.7942 10.834 18.334 10.834H10.834V18.334C10.834 18.7942 10.4609 19.1673 10.0007 19.1673C9.54041 19.1673 9.16732 18.7942 9.16732 18.334V10.834H1.66732C1.20708 10.834 0.833984 10.4609 0.833984 10.0007C0.833984 9.54041 1.20708 9.16732 1.66732 9.16732H9.16732V1.66732C9.16732 1.20708 9.54041 0.833984 10.0007 0.833984Z" fill="#17696A"/>
</g>
<defs>
<clipPath id="clip0_2837_12131">
<rect width="20" height="20" fill="white"/>
</clipPath>
</defs>
</svg>
